<svg width="14" height="15" viewBox="0 0 14 15" fill="none" xmlns="http://www.w3.org/2000/svg">
<path d="M11.75 3.08331L11.3368 9.76671C11.2313 11.4743 11.1785 12.3281 10.7505 12.9419C10.5389 13.2454 10.2664 13.5015 9.95047 13.694C9.31141 14.0833 8.45599 14.0833 6.74516 14.0833C5.03208 14.0833 4.17554 14.0833 3.53604 13.6933C3.21987 13.5004 2.94733 13.2438 2.73579 12.9399C2.30792 12.325 2.2563 11.4701 2.15307 9.76008L1.75 3.08331" stroke="#97A1B2" stroke-width="1.5" stroke-linecap="round"/>
<path d="M0.75 3.08333H12.75M9.45382 3.08333L8.9987 2.14448C8.69638 1.52084 8.54522 1.20901 8.28448 1.01454C8.22664 0.9714 8.1654 0.933028 8.10135 0.899801C7.81261 0.75 7.46608 0.75 6.77302 0.75C6.06255 0.75 5.70732 0.75 5.41379 0.90608C5.34873 0.940672 5.28666 0.980597 5.2282 1.02545C4.96443 1.2278 4.81709 1.55104 4.5224 2.19751L4.11862 3.08333" stroke="#97A1B2" stroke-width="1.5" stroke-linecap="round"/>
<path d="M5.08333 10.4167L5.08333 6.41666" stroke="#97A1B2" stroke-width="1.5" stroke-linecap="round"/>
<path d="M8.41667 10.4167L8.41667 6.41666" stroke="#97A1B2" stroke-width="1.5" stroke-linecap="round"/>
</svg>
