<svg width="16" height="16" viewBox="0 0 16 16" fill="none" xmlns="http://www.w3.org/2000/svg">
<path d="M2.93121 2.88001L7.07969 8.06465C7.26128 8.29173 7.36014 8.57388 7.36001 8.86465V13.12L8.64001 12.16V8.86401C8.64002 8.57346 8.73887 8.29156 8.92033 8.06465L13.0688 2.88001H2.93185H2.93121ZM2.93121 1.60001H13.0688C13.3099 1.60004 13.5462 1.66818 13.7503 1.79659C13.9544 1.925 14.1181 2.10846 14.2225 2.32582C14.3269 2.54319 14.3677 2.78562 14.3404 3.0252C14.313 3.26479 14.2186 3.49177 14.0678 3.68001L9.92001 8.86401V12.16C9.92001 12.3587 9.87374 12.5547 9.78487 12.7324C9.69601 12.9102 9.56698 13.0648 9.40801 13.184L8.12801 14.144C7.93784 14.2866 7.71171 14.3735 7.47496 14.3948C7.23821 14.4162 7.00019 14.3712 6.78757 14.2649C6.57496 14.1586 6.39615 13.9952 6.27117 13.7929C6.1462 13.5907 6.08001 13.3577 6.08001 13.12V8.86401L1.93217 3.68001C1.78146 3.49177 1.68698 3.26479 1.65963 3.0252C1.63228 2.78562 1.67315 2.54319 1.77756 2.32582C1.88196 2.10846 2.04564 1.925 2.24974 1.79659C2.45385 1.66818 2.69007 1.60004 2.93121 1.60001Z" fill="#97A1B2"/>
</svg>
