<svg width="16" height="12" viewBox="0 0 16 12" fill="none" xmlns="http://www.w3.org/2000/svg">
<path d="M2.8784 1.6L7.476 5.696C7.62251 5.82645 7.81183 5.89853 8.008 5.89853C8.20417 5.89853 8.39349 5.82645 8.54 5.696L13.1384 1.6H2.8784ZM14.4 2.6184L9.6048 6.8912C9.16518 7.28299 8.59687 7.49949 8.008 7.49949C7.41913 7.49949 6.85082 7.28299 6.4112 6.8912L1.6 2.6032V9.6H14.4V2.6184ZM1.6 0H14.4C14.8243 0 15.2313 0.168571 15.5314 0.468629C15.8314 0.768687 16 1.17565 16 1.6V9.6C16 10.0243 15.8314 10.4313 15.5314 10.7314C15.2313 11.0314 14.8243 11.2 14.4 11.2H1.6C1.17565 11.2 0.768687 11.0314 0.468629 10.7314C0.168571 10.4313 0 10.0243 0 9.6V1.6C0 1.17565 0.168571 0.768687 0.468629 0.468629C0.768687 0.168571 1.17565 0 1.6 0Z" fill="#97A1B2"/>
</svg>
