<svg width="20" height="20" viewBox="0 0 20 20" fill="none" xmlns="http://www.w3.org/2000/svg">
<path d="M7.60001 2H12.4C13.0365 2 13.647 2.25286 14.0971 2.70294C14.5472 3.15303 14.8 3.76348 14.8 4.4V15.6C14.8 16.2365 14.5472 16.847 14.0971 17.2971C13.647 17.7471 13.0365 18 12.4 18H7.60001C6.96349 18 6.35304 17.7471 5.90296 17.2971C5.45287 16.847 5.20001 16.2365 5.20001 15.6V4.4C5.20001 3.76348 5.45287 3.15303 5.90296 2.70294C6.35304 2.25286 6.96349 2 7.60001 2ZM7.60001 3.6C7.38784 3.6 7.18436 3.68429 7.03433 3.83431C6.8843 3.98434 6.80001 4.18783 6.80001 4.4V15.6C6.80001 15.8122 6.8843 16.0157 7.03433 16.1657C7.18436 16.3157 7.38784 16.4 7.60001 16.4H12.4C12.6122 16.4 12.8157 16.3157 12.9657 16.1657C13.1157 16.0157 13.2 15.8122 13.2 15.6V4.4C13.2 4.18783 13.1157 3.98434 12.9657 3.83431C12.8157 3.68429 12.6122 3.6 12.4 3.6H7.60001ZM10 15.6C9.78784 15.6 9.58436 15.5157 9.43433 15.3657C9.2843 15.2157 9.20001 15.0122 9.20001 14.8C9.20001 14.5878 9.2843 14.3843 9.43433 14.2343C9.58436 14.0843 9.78784 14 10 14C10.2122 14 10.4157 14.0843 10.5657 14.2343C10.7157 14.3843 10.8 14.5878 10.8 14.8C10.8 15.0122 10.7157 15.2157 10.5657 15.3657C10.4157 15.5157 10.2122 15.6 10 15.6Z" fill="#97A1B2"/>
</svg>
