<svg width="12" height="12" viewBox="0 0 12 12" fill="none" xmlns="http://www.w3.org/2000/svg">
<path d="M5.9998 1.7C6.04906 1.7 6.09681 1.71986 6.13164 1.75468C6.16623 1.78944 6.1853 1.83649 6.18535 1.88554V5.81425H10.1141C10.1633 5.81425 10.2111 5.83412 10.2459 5.86894C10.2805 5.9037 10.2996 5.95075 10.2996 5.9998C10.2996 6.04906 10.2807 6.09681 10.2459 6.13164C10.2111 6.16646 10.1633 6.18535 10.1141 6.18535H6.18535V10.1141C6.18535 10.1633 6.16646 10.2111 6.13164 10.2459C6.09681 10.2807 6.04906 10.2996 5.9998 10.2996C5.95075 10.2996 5.9037 10.2805 5.86894 10.2459C5.83412 10.2111 5.81425 10.1633 5.81425 10.1141V6.18535H1.88554C1.83649 6.1853 1.78944 6.16623 1.75468 6.13164C1.71986 6.09681 1.7 6.04906 1.7 5.9998C1.70005 5.95062 1.7199 5.90372 1.75468 5.86894C1.78947 5.83416 1.83636 5.8143 1.88554 5.81425H5.81425V1.88554C5.8143 1.83636 5.83416 1.78947 5.86894 1.75468C5.90372 1.7199 5.95062 1.70005 5.9998 1.7Z" fill="#97A1B2" stroke="white"/>
</svg>
