<svg width="18" height="18" viewBox="0 0 18 18" fill="none" xmlns="http://www.w3.org/2000/svg">
<path d="M16.6352 8.23598C16.8784 8.57704 17 8.74757 17 8.99999C17 9.25242 16.8784 9.42295 16.6352 9.76401C15.5423 11.2964 12.7514 14.6 9 14.6C5.24862 14.6 2.45768 11.2964 1.36483 9.76401C1.12161 9.42295 1 9.25242 1 8.99999C1 8.74757 1.12161 8.57704 1.36483 8.23598C2.45768 6.70355 5.24862 3.39999 9 3.39999C12.7514 3.39999 15.5423 6.70355 16.6352 8.23598Z" stroke="#97A1B2" stroke-width="1.25"/>
<path d="M11.4 8.99999C11.4 7.67451 10.3255 6.59999 9.00001 6.59999C7.67452 6.59999 6.60001 7.67451 6.60001 8.99999C6.60001 10.3255 7.67452 11.4 9.00001 11.4C10.3255 11.4 11.4 10.3255 11.4 8.99999Z" stroke="#97A1B2" stroke-width="1.25"/>
</svg>
