<svg width="20" height="20" viewBox="0 0 20 20" fill="none" xmlns="http://www.w3.org/2000/svg">
<path d="M3.8016 8.4C3.66732 8.92272 3.59959 9.46031 3.6 10C3.6 10.552 3.6704 11.088 3.8016 11.6H6.08C5.97214 10.5361 5.97214 9.46394 6.08 8.4H3.8016ZM4.456 6.8H6.3328C6.5456 5.8264 6.8528 4.9544 7.2296 4.2288C6.06814 4.78834 5.10177 5.68419 4.456 6.8ZM16.1984 8.4H13.92C14.0279 9.46394 14.0279 10.5361 13.92 11.6H16.1984C16.4677 10.5503 16.4677 9.44967 16.1984 8.4ZM15.544 6.8C14.8982 5.68419 13.9319 4.78834 12.7704 4.2288C13.148 4.9544 13.4544 5.8264 13.6672 6.8H15.544ZM7.6896 8.4C7.62966 8.93122 7.59975 9.46541 7.6 10C7.6 10.548 7.6304 11.084 7.6896 11.6H12.3104C12.4309 10.5367 12.4309 9.46326 12.3104 8.4H7.6896ZM7.976 6.8H12.024C11.8784 6.19864 11.6684 5.61473 11.3976 5.0584C10.8952 4.0544 10.3576 3.6 10 3.6C9.6416 3.6 9.1048 4.0544 8.6024 5.0584C8.3504 5.564 8.1384 6.152 7.976 6.8ZM4.456 13.2C5.10177 14.3158 6.06814 15.2117 7.2296 15.7712C6.852 15.0456 6.5456 14.1736 6.3328 13.2H4.456ZM15.544 13.2H13.6672C13.4544 14.1736 13.1472 15.0456 12.7704 15.7712C13.9319 15.2117 14.8982 14.3158 15.544 13.2ZM7.976 13.2C8.1384 13.848 8.3504 14.436 8.6024 14.9416C9.1048 15.9456 9.6424 16.4 10 16.4C10.3584 16.4 10.8952 15.9456 11.3976 14.9416C11.6496 14.436 11.8616 13.848 12.024 13.2H7.976ZM10 18C5.5816 18 2 14.4184 2 10C2 5.5816 5.5816 2 10 2C14.4184 2 18 5.5816 18 10C18 14.4184 14.4184 18 10 18Z" fill="#97A1B2"/>
</svg>
