<svg width="85" height="45" viewBox="0 0 85 45" fill="none" xmlns="http://www.w3.org/2000/svg">
<mask id="mask0_4_1359" style="mask-type:luminance" maskUnits="userSpaceOnUse" x="0" y="0" width="85" height="32">
<path d="M0 0H84.6668V31.4262H0V0Z" fill="white"/>
</mask>
<g mask="url(#mask0_4_1359)">
<path d="M0 0H84.6935V31.4262H0V0Z" stroke="black" stroke-width="2.69644"/>
</g>
<path d="M20.556 7.26073V19.9677H26.0275V23.1473H16.9382V7.26073H20.556Z" fill="black"/>
<path d="M25.4664 15.1928C25.4664 12.898 26.2487 10.9543 27.8146 9.36171C29.3791 7.76632 31.2666 6.96862 33.4771 6.96862C35.6975 6.96862 37.585 7.76351 39.1396 9.35047C40.6929 10.9346 41.4709 12.8825 41.4709 15.1928C41.4709 17.5184 40.7069 19.4734 39.179 21.0575C37.651 22.6417 35.7494 23.4338 33.4771 23.4338C31.1514 23.4338 29.233 22.6501 27.7247 21.08C26.2192 19.5071 25.4664 17.5451 25.4664 15.1928ZM29.3763 15.1928C29.3763 16.0284 29.5027 16.791 29.7583 17.4791C30.0167 18.1645 30.4661 18.7459 31.1065 19.2206C31.7497 19.6967 32.5404 19.934 33.4771 19.934C34.8253 19.934 35.8421 19.472 36.5275 18.5465C37.2156 17.6224 37.5611 16.5045 37.5611 15.1928C37.5611 13.8979 37.21 12.7856 36.5106 11.8559C35.8098 10.9234 34.7986 10.4571 33.4771 10.4571C32.1654 10.4571 31.1542 10.9234 30.4436 11.8559C29.7316 12.7856 29.3763 13.8979 29.3763 15.1928Z" fill="black"/>
<path d="M55.7929 14.249V17.6982C55.38 19.5857 54.4812 21.0154 53.0965 21.9844C51.7103 22.9506 50.1641 23.4338 48.4564 23.4338C46.3104 23.4338 44.4819 22.6332 42.9736 21.0294C41.4681 19.4228 40.7153 17.4847 40.7153 15.2152C40.7153 12.905 41.4526 10.9543 42.9287 9.36171C44.4033 7.76632 46.2458 6.96862 48.4564 6.96862C51.0362 6.96862 53.0768 7.87586 54.5795 9.68753L52.2089 12.2885C51.3621 10.9262 50.1824 10.2437 48.6698 10.2437C47.5491 10.2437 46.5941 10.7296 45.8049 11.6986C45.0184 12.6691 44.6252 13.8417 44.6252 15.2152C44.6252 16.5634 45.0184 17.7151 45.8049 18.67C46.5941 19.625 47.5491 20.1025 48.6698 20.1025C49.5911 20.1025 50.3944 19.8245 51.0798 19.2655C51.7679 18.708 52.1134 17.9664 52.1134 17.0409H48.4564V14.249H55.7929Z" fill="black"/>
<path d="M55.0402 15.1928C55.0402 12.898 55.8224 10.9543 57.3883 9.36171C58.9528 7.76632 60.8403 6.96862 63.0508 6.96862C65.2712 6.96862 67.1587 7.76351 68.7134 9.35047C70.2666 10.9346 71.0447 12.8825 71.0447 15.1928C71.0447 17.5184 70.2807 19.4734 68.7527 21.0575C67.2247 22.6417 65.3231 23.4338 63.0508 23.4338C60.7252 23.4338 58.8068 22.6501 57.2984 21.08C55.7929 19.5071 55.0402 17.5451 55.0402 15.1928ZM58.95 15.1928C58.95 16.0284 59.0764 16.791 59.332 17.4791C59.5904 18.1645 60.0398 18.7459 60.6802 19.2206C61.3234 19.6967 62.1141 19.934 63.0508 19.934C64.3991 19.934 65.4158 19.472 66.1012 18.5465C66.7893 17.6224 67.1348 16.5045 67.1348 15.1928C67.1348 13.8979 66.7837 12.7856 66.0843 11.8559C65.3835 10.9234 64.3724 10.4571 63.0508 10.4571C61.7391 10.4571 60.728 10.9234 60.0173 11.8559C59.3053 12.7856 58.95 13.8979 58.95 15.1928Z" fill="black"/>
<mask id="mask1_4_1359" style="mask-type:luminance" maskUnits="userSpaceOnUse" x="36" y="32" width="15" height="13">
<path d="M50.1272 32.5845H36.864V44.5845H50.1272V32.5845Z" fill="white"/>
</mask>
<g mask="url(#mask1_4_1359)">
<path d="M38.0439 34.5016H39.84C39.9115 34.5016 39.9707 34.5263 40.0176 34.5707C40.0694 34.6175 40.0966 34.6767 40.0966 34.7483C40.0966 34.8223 40.0694 34.8815 40.0176 34.9259C39.9707 34.9728 39.9115 34.995 39.84 34.995H38.2709L38.3301 34.9062V36.0707L38.2808 36.0114H39.6031C39.6747 36.0114 39.7364 36.0386 39.7906 36.0904C39.8425 36.1373 39.8696 36.1989 39.8696 36.2779C39.8696 36.3519 39.8425 36.4111 39.7906 36.4555C39.7364 36.495 39.6747 36.5147 39.6031 36.5147H38.2906L38.3301 36.4753V37.6693L38.2906 37.6299H39.84C39.9115 37.6299 39.9707 37.657 40.0176 37.7088C40.0694 37.7557 40.0966 37.8124 40.0966 37.8766C40.0966 37.9506 40.0694 38.0098 40.0176 38.0542C39.9707 38.1011 39.9115 38.1233 39.84 38.1233H38.0439C37.9699 38.1233 37.9082 38.1011 37.8564 38.0542C37.8096 38.0024 37.7874 37.9358 37.7874 37.8568V34.7582C37.7874 34.6866 37.8096 34.6274 37.8564 34.5805C37.9082 34.5287 37.9699 34.5016 38.0439 34.5016Z" fill="black"/>
<path d="M41.6329 38.1726C41.3887 38.1726 41.1691 38.1381 40.9717 38.0739C40.7793 38.0024 40.5967 37.8864 40.4191 37.7286C40.3796 37.7039 40.35 37.6693 40.3303 37.6299C40.3105 37.5904 40.3007 37.5509 40.3007 37.5114C40.3007 37.4473 40.3229 37.3881 40.3697 37.3338C40.4215 37.282 40.4832 37.2549 40.5572 37.2549C40.6164 37.2549 40.6683 37.2746 40.7151 37.3141C40.8459 37.4325 40.9816 37.5262 41.1197 37.5904C41.2628 37.6496 41.4355 37.6792 41.6329 37.6792C41.7711 37.6792 41.8944 37.657 42.0079 37.6101C42.1263 37.5657 42.2176 37.5065 42.2842 37.4325C42.3558 37.3536 42.3928 37.2647 42.3928 37.1661C42.3928 37.0427 42.3558 36.9391 42.2842 36.8601C42.2176 36.7762 42.1164 36.7072 41.9783 36.6529C41.8451 36.6011 41.6872 36.5542 41.5046 36.5147C41.327 36.4901 41.1691 36.4506 41.0309 36.3963C40.8977 36.3371 40.7842 36.2656 40.6855 36.1792C40.5918 36.0953 40.5202 35.9917 40.4684 35.8733C40.4141 35.7549 40.3895 35.6216 40.3895 35.4687C40.3895 35.259 40.4413 35.0789 40.5474 34.9259C40.6584 34.768 40.8089 34.6496 41.0013 34.5707C41.1913 34.4868 41.4059 34.4424 41.6428 34.4424C41.8648 34.4424 42.0696 34.4794 42.2546 34.5509C42.4446 34.6175 42.6 34.7063 42.7184 34.8174C42.8023 34.8914 42.8467 34.9703 42.8467 35.0542C42.8467 35.1134 42.8196 35.1702 42.7678 35.222C42.7135 35.2762 42.6592 35.3009 42.6 35.3009C42.5457 35.3009 42.5038 35.2886 42.4717 35.2614C42.4174 35.2022 42.3434 35.1504 42.2447 35.1036C42.151 35.0591 42.0523 35.0221 41.9487 34.995C41.8426 34.9629 41.7414 34.9457 41.6428 34.9457C41.4898 34.9457 41.359 34.9703 41.248 35.0147C41.1345 35.0542 41.0507 35.111 40.9914 35.1825C40.9322 35.2565 40.9026 35.3453 40.9026 35.4489C40.9026 35.5624 40.9347 35.6562 41.0013 35.7351C41.0729 35.8141 41.1691 35.8782 41.2875 35.9226C41.4109 35.9695 41.549 36.009 41.702 36.0411C41.8919 36.0879 42.0622 36.1373 42.2151 36.1891C42.3656 36.2434 42.4914 36.3075 42.5901 36.3864C42.6938 36.4654 42.7727 36.569 42.827 36.6924C42.8862 36.8108 42.9158 36.9588 42.9158 37.1364C42.9158 37.3486 42.8566 37.5312 42.7382 37.6891C42.6197 37.842 42.4643 37.9605 42.2743 38.0443C42.0819 38.1282 41.8697 38.1726 41.6329 38.1726Z" fill="black"/>
<path d="M44.5144 38.1233C44.4355 38.1233 44.3688 38.1011 44.317 38.0542C44.2628 38.0024 44.2381 37.9358 44.2381 37.8568V34.7582H44.8006V37.8568C44.8006 37.9358 44.771 38.0024 44.7118 38.0542C44.6575 38.1011 44.5933 38.1233 44.5144 38.1233ZM43.3401 34.995C43.266 34.995 43.2044 34.9728 43.1526 34.9259C43.0983 34.8815 43.0736 34.8174 43.0736 34.7384C43.0736 34.6669 43.0983 34.6101 43.1526 34.5707C43.2044 34.5263 43.266 34.5016 43.3401 34.5016H45.6986C45.7702 34.5016 45.8294 34.5263 45.8762 34.5707C45.928 34.6175 45.9552 34.6767 45.9552 34.7483C45.9552 34.8223 45.928 34.8815 45.8762 34.9259C45.8294 34.9728 45.7702 34.995 45.6986 34.995H43.3401Z" fill="black"/>
<path d="M47.8486 34.5016C48.1052 34.5016 48.3272 34.5485 48.5196 34.6397C48.717 34.7335 48.8774 34.8642 49.0032 35.0345C49.134 35.1998 49.2326 35.3947 49.2993 35.6167C49.3634 35.8338 49.3979 36.0657 49.3979 36.3075C49.3979 36.643 49.3387 36.9489 49.2203 37.2253C49.1019 37.5016 48.9267 37.7236 48.6973 37.8864C48.4728 38.0443 48.1891 38.1233 47.8486 38.1233H46.5854C46.5114 38.1233 46.4497 38.1011 46.3979 38.0542C46.3511 38.0024 46.3289 37.9358 46.3289 37.8568V34.7582C46.3289 34.6866 46.3511 34.6274 46.3979 34.5805C46.4497 34.5287 46.5114 34.5016 46.5854 34.5016H47.8486ZM47.7993 37.6299C48.041 37.6299 48.2384 37.5707 48.3914 37.4522C48.5493 37.3289 48.6603 37.1661 48.7269 36.9687C48.7984 36.7664 48.8354 36.5443 48.8354 36.3075C48.8354 36.1299 48.8157 35.967 48.7762 35.8141C48.7368 35.6562 48.6726 35.5156 48.5887 35.3897C48.5024 35.2664 48.3938 35.1702 48.2631 35.1036C48.1372 35.032 47.9818 34.995 47.7993 34.995H46.8223L46.8716 34.9457V37.6792L46.8321 37.6299H47.7993Z" fill="black"/>
<path d="M40.2534 42.3878C40.325 42.3878 40.3842 42.4124 40.4311 42.4569C40.4755 42.5037 40.5002 42.5629 40.5002 42.6345C40.5002 42.7011 40.4755 42.7578 40.4311 42.8022C40.3842 42.8491 40.325 42.8713 40.2534 42.8713H38.4377C38.3587 42.8713 38.2946 42.8491 38.2502 42.8022C38.2107 42.7578 38.1909 42.6986 38.1909 42.6246C38.1909 42.5531 38.2131 42.4914 38.26 42.4371L39.4146 41.1838C39.5651 41.0259 39.6811 40.873 39.76 40.72C39.839 40.5621 39.8784 40.424 39.8784 40.3055C39.8784 40.1156 39.8217 39.9651 39.7107 39.8516C39.5972 39.7332 39.4467 39.674 39.2567 39.674C39.1778 39.674 39.0988 39.6937 39.0199 39.7332C38.9409 39.7677 38.8645 39.8121 38.7929 39.8713C38.7189 39.9305 38.6572 39.9996 38.6054 40.0786C38.5709 40.1254 38.5363 40.1575 38.4969 40.1772C38.4623 40.1921 38.4327 40.197 38.408 40.197C38.3414 40.197 38.2798 40.1748 38.2205 40.1279C38.1663 40.0761 38.1416 40.0194 38.1416 39.9601C38.1416 39.9157 38.1564 39.8689 38.1909 39.822C38.223 39.7776 38.2625 39.7307 38.3094 39.6838C38.3883 39.5851 38.4796 39.5013 38.5857 39.4272C38.6967 39.3557 38.8127 39.299 38.9311 39.2595C39.0544 39.2151 39.1729 39.1904 39.2863 39.1904C39.5158 39.1904 39.7131 39.2373 39.8784 39.3286C40.0487 39.4223 40.1794 39.5506 40.2732 39.7134C40.3645 39.8713 40.4113 40.0638 40.4113 40.2858C40.4113 40.4708 40.3546 40.6781 40.2436 40.9075C40.1301 41.132 39.9722 41.3516 39.7699 41.5687L38.9705 42.4371L38.9113 42.3878H40.2534Z" fill="black"/>
<path d="M42.1381 42.9207C41.8421 42.9207 41.5954 42.8417 41.398 42.6838C41.2006 42.521 41.0477 42.299 40.944 42.0226C40.8454 41.7414 40.796 41.4182 40.796 41.0555C40.796 40.6953 40.8454 40.3746 40.944 40.0983C41.0477 39.8171 41.2006 39.595 41.398 39.4371C41.5954 39.2743 41.8421 39.1904 42.1381 39.1904C42.4268 39.1904 42.671 39.2743 42.8684 39.4371C43.0658 39.595 43.2163 39.8171 43.3223 40.0983C43.426 40.3746 43.4802 40.6953 43.4802 41.0555C43.4802 41.4182 43.426 41.7414 43.3223 42.0226C43.2163 42.299 43.0658 42.521 42.8684 42.6838C42.671 42.8417 42.4268 42.9207 42.1381 42.9207ZM42.1381 42.3976C42.296 42.3976 42.4292 42.3483 42.5427 42.2496C42.6612 42.146 42.7524 41.993 42.819 41.7957C42.8832 41.5934 42.9177 41.3467 42.9177 41.0555C42.9177 40.7669 42.8832 40.5226 42.819 40.3253C42.7524 40.123 42.6612 39.97 42.5427 39.8713C42.4292 39.7677 42.296 39.7134 42.1381 39.7134C41.9728 39.7134 41.8322 39.7677 41.7138 39.8713C41.5954 39.97 41.5016 40.123 41.4375 40.3253C41.3783 40.5226 41.3487 40.7669 41.3487 41.0555C41.3487 41.3467 41.3783 41.5934 41.4375 41.7957C41.5016 41.993 41.5954 42.146 41.7138 42.2496C41.8322 42.3483 41.9728 42.3976 42.1381 42.3976Z" fill="black"/>
<path d="M45.8891 42.3878C45.9606 42.3878 46.0198 42.4124 46.0667 42.4569C46.1111 42.5037 46.1358 42.5629 46.1358 42.6345C46.1358 42.7011 46.1111 42.7578 46.0667 42.8022C46.0198 42.8491 45.9606 42.8713 45.8891 42.8713H44.0733C43.9943 42.8713 43.9302 42.8491 43.8858 42.8022C43.8463 42.7578 43.8266 42.6986 43.8266 42.6246C43.8266 42.5531 43.8488 42.4914 43.8956 42.4371L45.0502 41.1838C45.2007 41.0259 45.3167 40.873 45.3956 40.72C45.4746 40.5621 45.5141 40.424 45.5141 40.3055C45.5141 40.1156 45.4573 39.9651 45.3463 39.8516C45.2328 39.7332 45.0823 39.674 44.8924 39.674C44.8134 39.674 44.7345 39.6937 44.6555 39.7332C44.5766 39.7677 44.5001 39.8121 44.4285 39.8713C44.3545 39.9305 44.2928 39.9996 44.241 40.0786C44.2065 40.1254 44.172 40.1575 44.1325 40.1772C44.0979 40.1921 44.0683 40.197 44.0437 40.197C43.9771 40.197 43.9154 40.1748 43.8562 40.1279C43.8019 40.0761 43.7772 40.0194 43.7772 39.9601C43.7772 39.9157 43.792 39.8689 43.8266 39.822C43.8586 39.7776 43.8981 39.7307 43.945 39.6838C44.0239 39.5851 44.1152 39.5013 44.2213 39.4272C44.3323 39.3557 44.4483 39.299 44.5667 39.2595C44.6901 39.2151 44.8085 39.1904 44.922 39.1904C45.1514 39.1904 45.3488 39.2373 45.5141 39.3286C45.6843 39.4223 45.8151 39.5506 45.9088 39.7134C46.0001 39.8713 46.047 40.0638 46.047 40.2858C46.047 40.4708 45.9902 40.6781 45.8792 40.9075C45.7657 41.132 45.6078 41.3516 45.4055 41.5687L44.6062 42.4371L44.547 42.3878H45.8891Z" fill="black"/>
<path d="M47.4284 42.9108C47.2952 42.9108 47.157 42.8911 47.0139 42.8516C46.8684 42.8072 46.7475 42.7406 46.6488 42.6542C46.6093 42.6296 46.5797 42.5926 46.56 42.5457C46.5403 42.4939 46.5304 42.4445 46.5304 42.3976C46.5304 42.3532 46.5501 42.3064 46.5896 42.2595C46.634 42.2151 46.6982 42.1904 46.7771 42.1904C46.8289 42.1904 46.8906 42.2176 46.9646 42.2694C47.0362 42.3162 47.1077 42.3557 47.1817 42.3878C47.2607 42.4149 47.3421 42.4273 47.4284 42.4273C47.6061 42.4273 47.759 42.3952 47.8922 42.3286C48.023 42.2644 48.1241 42.1707 48.1982 42.0523C48.2697 41.9338 48.3067 41.7957 48.3067 41.6378C48.3067 41.4873 48.2722 41.359 48.208 41.2529C48.1414 41.1493 48.0526 41.0703 47.9416 41.0161C47.8281 40.9569 47.7047 40.9273 47.5666 40.9273C47.4482 40.9273 47.3445 40.947 47.2607 40.9865C47.1743 41.021 47.0954 41.0555 47.0238 41.095C46.9572 41.1296 46.8955 41.1444 46.8363 41.1444C46.7426 41.1444 46.6735 41.1246 46.6291 41.0851C46.5896 41.0457 46.5625 40.9963 46.5501 40.9371C46.5353 40.8779 46.5329 40.8261 46.5403 40.7792L46.7278 39.4766C46.7327 39.4174 46.7598 39.368 46.8067 39.3286C46.8511 39.2891 46.9103 39.2694 46.9843 39.2694H48.5041C48.5682 39.2694 48.625 39.294 48.6718 39.3384C48.7163 39.3853 48.7409 39.4445 48.7409 39.5161C48.7409 39.5827 48.7163 39.6394 48.6718 39.6838C48.625 39.7307 48.5682 39.7529 48.5041 39.7529H47.1126L47.1718 39.7036L47.0041 40.8187L46.9251 40.6608C46.9572 40.6287 47.009 40.5967 47.083 40.5621C47.1546 40.5301 47.236 40.5029 47.3297 40.4832C47.4284 40.4585 47.5271 40.4437 47.6258 40.4437C47.8552 40.4437 48.06 40.498 48.2376 40.6016C48.4202 40.7003 48.5633 40.8434 48.662 41.0259C48.7656 41.2036 48.8199 41.4083 48.8199 41.6378C48.8199 41.8894 48.7631 42.1115 48.6521 42.3088C48.5386 42.5013 48.3783 42.6493 48.1686 42.7529C47.9638 42.859 47.7171 42.9108 47.4284 42.9108Z" fill="black"/>
</g>
</svg>
