<svg width="20" height="20" viewBox="0 0 20 20" fill="none" xmlns="http://www.w3.org/2000/svg">
<path d="M4.66663 15.7143C4.24758 15.7143 3.88885 15.5651 3.59044 15.2667C3.29203 14.9683 3.14282 14.6095 3.14282 14.1905V8.85714C3.14282 7.91746 3.32377 7.03175 3.68568 6.2C4.04758 5.36825 4.53965 4.64127 5.16187 4.01905C5.78409 3.39683 6.51108 2.90476 7.34282 2.54286C8.17457 2.18095 9.06028 2 9.99997 2C10.9396 2 11.8254 2.18095 12.6571 2.54286C13.4889 2.90476 14.2158 3.39683 14.8381 4.01905C15.4603 4.64127 15.9523 5.36825 16.3143 6.2C16.6762 7.03175 16.8571 7.91746 16.8571 8.85714V16.4762C16.8571 16.8952 16.7079 17.254 16.4095 17.5524C16.1111 17.8508 15.7523 18 15.3333 18H10.7619C10.546 18 10.365 17.927 10.219 17.781C10.073 17.6349 9.99997 17.454 9.99997 17.2381C9.99997 17.0222 10.073 16.8413 10.219 16.6952C10.365 16.5492 10.546 16.4762 10.7619 16.4762H15.3333V15.7143H13.8095C13.3904 15.7143 13.0317 15.5651 12.7333 15.2667C12.4349 14.9683 12.2857 14.6095 12.2857 14.1905V11.1429C12.2857 10.7238 12.4349 10.3651 12.7333 10.0667C13.0317 9.76825 13.3904 9.61905 13.8095 9.61905H15.3333V8.85714C15.3333 7.38413 14.8127 6.12698 13.7714 5.08571C12.7301 4.04444 11.473 3.52381 9.99997 3.52381C8.52695 3.52381 7.26981 4.04444 6.22854 5.08571C5.18727 6.12698 4.66663 7.38413 4.66663 8.85714V9.61905H6.19044C6.60949 9.61905 6.96822 9.76825 7.26663 10.0667C7.56504 10.3651 7.71425 10.7238 7.71425 11.1429V14.1905C7.71425 14.6095 7.56504 14.9683 7.26663 15.2667C6.96822 15.5651 6.60949 15.7143 6.19044 15.7143H4.66663ZM4.66663 14.1905H6.19044V11.1429H4.66663V14.1905ZM13.8095 14.1905H15.3333V11.1429H13.8095V14.1905Z" fill="#0B1331"/>
</svg>
