<svg width="15" height="16" viewBox="0 0 15 16" fill="none" xmlns="http://www.w3.org/2000/svg">
<path d="M10.9328 9.4256L10.4 8.9488V4.8C10.4 3.95131 10.0629 3.13737 9.46274 2.53726C8.86263 1.93714 8.0487 1.6 7.2 1.6C6.35131 1.6 5.53738 1.93714 4.93726 2.53726C4.33715 3.13737 4 3.95131 4 4.8V8.9488L3.4672 9.4256C2.69404 10.1156 2.1279 11.0069 1.832 12H12.568C12.2721 11.0069 11.706 10.1156 10.9328 9.4256ZM9.6 13.6C9.6 14.2365 9.34715 14.847 8.89706 15.2971C8.44697 15.7471 7.83652 16 7.2 16C6.56348 16 5.95303 15.7471 5.50295 15.2971C5.05286 14.847 4.8 14.2365 4.8 13.6H4.13857e-06C-0.00108344 12.5868 0.212195 11.5849 0.625829 10.66C1.03946 9.73513 1.64409 8.90822 2.4 8.2336V4.8C2.4 3.52696 2.90572 2.30606 3.80589 1.40589C4.70607 0.505713 5.92696 0 7.2 0C8.47304 0 9.69394 0.505713 10.5941 1.40589C11.4943 2.30606 12 3.52696 12 4.8V8.2336C12.7559 8.90822 13.3605 9.73513 13.7742 10.66C14.1878 11.5849 14.4011 12.5868 14.4 13.6H9.6ZM7.2 14.4C7.41218 14.4 7.61566 14.3157 7.76569 14.1657C7.91572 14.0157 8 13.8122 8 13.6H6.4C6.4 13.8122 6.48429 14.0157 6.63432 14.1657C6.78435 14.3157 6.98783 14.4 7.2 14.4Z" fill="#0B1331"/>
</svg>
